<svg xmlns="http://www.w3.org/2000/svg" viewBox="0 0 640 180" role="img" aria-label="재의 황무지">
  <rect width="640" height="180" fill="#1b1515"/>
  <path d="M0 132 C102 104 188 128 276 100 C398 62 492 124 640 82 L640 180 L0 180 Z" fill="#3a2725"/>
  <path d="M0 152 C128 132 250 154 382 124 C490 98 568 126 640 106 L640 180 L0 180 Z" fill="#201817"/>
  <path d="M416 50 C456 76 480 104 498 144" fill="none" stroke="#5e2a2b" stroke-width="14" stroke-linecap="round" opacity=".55"/>
  <g fill="#0e0b0b" opacity=".88">
    <path d="M112 96 l16 52 h-32 Z"/>
    <path d="M496 78 l24 76 h-48 Z"/>
  </g>
  <path d="M0 76 C160 92 300 54 448 72 C540 84 594 72 640 58" fill="none" stroke="#d2aaa0" stroke-opacity=".12" stroke-width="18"/>
</svg>
