<svg xmlns="http://www.w3.org/2000/svg" viewBox="0 0 640 180" role="img" aria-label="꿈꾸는 도시">
  <rect width="640" height="180" fill="#17202a"/>
  <path d="M0 118 C116 84 216 112 314 78 C430 38 530 86 640 48 L640 180 L0 180 Z" fill="#d8d6c8" opacity=".18"/>
  <g fill="#e8e0cf" opacity=".32">
    <rect x="110" y="76" width="42" height="82"/>
    <rect x="168" y="56" width="58" height="102"/>
    <rect x="248" y="88" width="46" height="70"/>
    <rect x="396" y="62" width="66" height="96"/>
    <rect x="484" y="82" width="48" height="76"/>
  </g>
  <g fill="#0f1620" opacity=".5">
    <rect x="126" y="92" width="8" height="66"/>
    <rect x="190" y="76" width="10" height="82"/>
    <rect x="420" y="82" width="10" height="76"/>
  </g>
  <path d="M0 96 C132 78 232 98 350 84 C470 70 548 84 640 70" fill="none" stroke="#f6efd8" stroke-opacity=".18" stroke-width="20"/>
</svg>
