<svg xmlns="http://www.w3.org/2000/svg" viewBox="0 0 640 180" role="img" aria-label="안개 낀 숲의 외곽">
  <rect width="640" height="180" fill="#101820"/>
  <path d="M0 122 C90 88 160 110 236 82 C330 50 430 92 640 50 L640 180 L0 180 Z" fill="#22372f"/>
  <path d="M0 142 C120 110 210 130 320 98 C438 64 520 118 640 84 L640 180 L0 180 Z" fill="#17261f"/>
  <g fill="#0b1413">
    <path d="M70 42 l24 82 h-48 Z"/>
    <path d="M132 18 l34 112 h-68 Z"/>
    <path d="M508 28 l30 105 h-60 Z"/>
    <path d="M574 48 l24 88 h-48 Z"/>
  </g>
  <path d="M0 92 C130 70 230 102 360 82 C470 65 548 72 640 60" fill="none" stroke="#b6c7b6" stroke-opacity=".18" stroke-width="18"/>
</svg>
