<svg xmlns="http://www.w3.org/2000/svg" viewBox="0 0 640 180" role="img" aria-label="잊혀진 산맥의 폐허">
  <rect width="640" height="180" fill="#111723"/>
  <path d="M0 116 L90 54 L164 110 L248 38 L352 126 L430 62 L520 120 L640 52 L640 180 L0 180 Z" fill="#273141"/>
  <path d="M0 142 L126 86 L236 138 L340 78 L466 144 L640 88 L640 180 L0 180 Z" fill="#171d29"/>
  <g fill="#0b0e16" opacity=".9">
    <rect x="204" y="102" width="18" height="52"/>
    <rect x="232" y="88" width="22" height="66"/>
    <rect x="260" y="112" width="18" height="42"/>
    <path d="M196 102 h88 l-44 -26 Z"/>
  </g>
  <path d="M0 86 C120 70 220 92 340 78 C460 64 542 78 640 66" fill="none" stroke="#b7c2d6" stroke-opacity=".16" stroke-width="20"/>
</svg>
